<svg width="195" height="195" viewBox="0 0 195 195" fill="none" xmlns="http://www.w3.org/2000/svg">
<rect x="30.875" y="50.375" width="130" height="78" rx="4.71323" fill="#E3F2FC"/>
<path fill-rule="evenodd" clip-rule="evenodd" d="M154.375 50.375H136.5C123.258 54.1183 109.624 56.2998 95.875 56.875C65.4387 58.1262 47.125 50.8137 40.625 60.125C35.75 66.9825 42.7862 81.6075 37.375 99.125C35.8476 104.055 33.6612 108.756 30.875 113.1V121.875C30.875 125.465 33.7851 128.375 37.375 128.375H154.375C157.965 128.375 160.875 125.465 160.875 121.875V56.875C160.875 53.2851 157.965 50.375 154.375 50.375Z" fill="white"/>
<path fill-rule="evenodd" clip-rule="evenodd" d="M68.2501 107.25V95.875C68.2501 94.0801 66.795 92.625 65.0001 92.625H45.5001C43.7052 92.625 42.2501 94.0801 42.2501 95.875V107.25C42.2501 109.045 43.7052 110.5 45.5001 110.5H65.0001C66.795 110.5 68.2501 109.045 68.2501 107.25ZM171.681 95.2088L121.306 164.808C120.95 165.351 120.336 165.67 119.686 165.65C119.037 165.631 118.444 165.274 118.121 164.71L95.9563 129.09C95.7037 128.713 95.7609 128.209 96.0915 127.899C96.4221 127.588 96.9288 127.563 97.2888 127.839L118.414 142.854C119.14 143.381 120.139 143.313 120.786 142.691L170.771 94.4288C170.994 94.2083 171.348 94.1955 171.586 94.3993C171.824 94.6031 171.865 94.9553 171.681 95.2088Z" fill="#3FB1B5"/>
<path d="M147.875 74.3033C148.526 74.3033 149.053 73.7758 149.053 73.125C149.053 72.4743 148.526 71.9467 147.875 71.9467V74.3033ZM43.875 71.9467C43.2242 71.9467 42.6967 72.4743 42.6967 73.125C42.6967 73.7758 43.2242 74.3033 43.875 74.3033V71.9467ZM159.697 92.625C159.697 93.2758 160.224 93.8033 160.875 93.8033C161.526 93.8033 162.053 93.2758 162.053 92.625H159.697ZM154.375 49.1967C153.724 49.1967 153.197 49.7243 153.197 50.375C153.197 51.0258 153.724 51.5533 154.375 51.5533V49.1967ZM124.248 49.1967C123.597 49.1967 123.069 49.7242 123.069 50.375C123.069 51.0258 123.597 51.5533 124.248 51.5533V49.1967ZM126.246 51.5533C126.897 51.5533 127.425 51.0258 127.425 50.375C127.425 49.7242 126.897 49.1967 126.246 49.1967V51.5533ZM113.376 51.5534C114.027 51.5534 114.555 51.0258 114.555 50.3751C114.555 49.7243 114.027 49.1968 113.376 49.1968V51.5534ZM86.125 129.553C86.7758 129.553 87.3033 129.026 87.3033 128.375C87.3033 127.724 86.7758 127.197 86.125 127.197V129.553ZM145.935 116.738C145.467 117.19 145.454 117.936 145.907 118.404C146.359 118.872 147.105 118.884 147.573 118.432L145.935 116.738ZM149.052 117.002C149.519 116.55 149.532 115.804 149.08 115.336C148.627 114.868 147.881 114.856 147.413 115.308L149.052 117.002ZM111.184 136.272C110.655 135.894 109.919 136.017 109.541 136.547C109.163 137.077 109.286 137.813 109.816 138.191L111.184 136.272ZM118.381 142.854L119.074 141.901L119.066 141.895L118.381 142.854ZM120.754 142.691L121.57 143.541L121.572 143.539L120.754 142.691ZM141.348 124.462C141.817 124.01 141.83 123.264 141.378 122.796C140.926 122.327 140.18 122.314 139.712 122.766L141.348 124.462ZM147.875 71.9467H43.875V74.3033H147.875V71.9467ZM162.053 92.625V56.875H159.697V92.625H162.053ZM162.053 56.875C162.053 52.6344 158.616 49.1967 154.375 49.1967V51.5533C157.314 51.5533 159.697 53.9359 159.697 56.875H162.053ZM124.248 51.5533H126.246V49.1967H124.248V51.5533ZM113.376 49.1968H37.375V51.5534H113.376V49.1968ZM37.375 49.1968C33.1344 49.1968 29.6967 52.6345 29.6967 56.8751H32.0533C32.0533 53.936 34.4359 51.5534 37.375 51.5534V49.1968ZM29.6967 56.8751V121.875H32.0533V56.8751H29.6967ZM29.6967 121.875C29.6967 126.116 33.1344 129.553 37.375 129.553V127.197C34.4359 127.197 32.0533 124.814 32.0533 121.875H29.6967ZM37.375 129.553H86.125V127.197H37.375V129.553ZM147.573 118.432L149.052 117.002L147.413 115.308L145.935 116.738L147.573 118.432ZM109.816 138.191L117.697 143.813L119.066 141.895L111.184 136.272L109.816 138.191ZM117.689 143.807C118.876 144.67 120.511 144.558 121.57 143.541L119.938 141.842C119.702 142.068 119.338 142.093 119.074 141.901L117.689 143.807ZM121.572 143.539L141.348 124.462L139.712 122.766L119.936 141.843L121.572 143.539Z" fill="#1E2229"/>
<path d="M45.5 102.375H66.235" stroke="#D2D6DB" stroke-width="2.35662" stroke-linecap="round"/>
<path d="M51.9999 95.875V101.237" stroke="#D2D6DB" stroke-width="2.35662" stroke-linecap="round"/>
<path d="M58.4999 104V107.949" stroke="#D2D6DB" stroke-width="2.35662" stroke-linecap="round"/>
</svg>
