<svg width="222" height="356" viewBox="0 0 222 356" fill="none" xmlns="http://www.w3.org/2000/svg">
  <g filter="url(#filter0_dd_1:181)">
    <path fill-rule="evenodd" clip-rule="evenodd" d="M47.1852 12H135.78C145.807 12 153.937 20.1073 153.937 30.1082V69.1879C154.301 69.3165 154.563 69.6634 154.563 70.0712V95.9847C154.563 96.3926 154.301 96.7395 153.937 96.8681V254.9C153.937 264.901 145.807 273.008 135.78 273.008H47.1852C37.1573 273.008 29.0281 264.901 29.0281 254.9V100.927C28.6633 100.798 28.402 100.451 28.402 100.043V85.0574C28.402 84.6495 28.6633 84.3026 29.0281 84.174V78.4476C28.6633 78.3191 28.402 77.9721 28.402 77.5643V62.5782C28.402 62.1704 28.6633 61.8234 29.0281 61.6948V54.0952C28.6633 53.9666 28.402 53.6197 28.402 53.2118V45.4066C28.402 44.9988 28.6633 44.6518 29.0281 44.5232V30.1082C29.0281 20.1073 37.1573 12 47.1852 12ZM47.1852 15.7465C39.232 15.7465 32.7847 22.1765 32.7847 30.1082V254.9C32.7847 262.832 39.232 269.262 47.1852 269.262H135.78C143.733 269.262 150.18 262.832 150.18 254.9V30.1082C150.18 22.1765 143.733 15.7465 135.78 15.7465H126.362C125.283 16.1251 124.51 17.1504 124.51 18.3557C124.51 22.1738 121.406 25.269 117.578 25.269H65.074C61.2457 25.269 58.1421 22.1738 58.1421 18.3557C58.1421 17.1504 57.3689 16.1251 56.2901 15.7465H47.1852Z" fill="#1E2229" />
  </g>
  <mask id="mask0_1:181" style="mask-type:alpha" maskUnits="userSpaceOnUse" x="32" y="15" width="119" height="255">
    <path fill-rule="evenodd" clip-rule="evenodd" d="M32.8264 29.08C32.8134 29.3304 32.8069 29.5824 32.8069 29.836V254.863C32.8069 262.803 39.2537 269.24 47.2064 269.24H135.795C143.748 269.24 150.194 262.803 150.194 254.863V29.836C150.194 29.805 150.194 29.774 150.194 29.743C150.144 21.8458 143.716 15.4593 135.795 15.4593H126.378C125.299 15.8383 124.526 16.8646 124.526 18.0712C124.526 21.8933 121.422 24.9917 117.594 24.9917H65.094C61.2659 24.9917 58.1626 21.8933 58.1626 18.0712C58.1626 16.8646 57.3894 15.8383 56.3106 15.4593H47.2064C43.6183 15.4593 40.3366 16.7696 37.8154 18.9371C36.8441 19.7721 35.9857 20.7343 35.2661 21.7978C33.8457 23.897 32.966 26.3908 32.8264 29.08Z" fill="#F1F1F1" />
  </mask>
  <g mask="url(#mask0_1:181)">
    <g clip-path="url(#clip0_1:181)">
      <rect x="32.4623" y="14.7444" width="117.751" height="255.106" fill="white" />
      <g filter="url(#filter1_d_1:181)">
        <rect x="32.4623" y="14.7444" width="117.751" height="32.0454" fill="white" />
      </g>
      <path fill-rule="evenodd" clip-rule="evenodd" d="M42.2842 36.6851C42.2835 36.5546 42.3347 36.4291 42.4267 36.3365L45.3731 33.39C45.4977 33.2654 45.6793 33.2167 45.8494 33.2623C46.0196 33.3079 46.1525 33.4408 46.1981 33.611C46.2437 33.7812 46.195 33.9627 46.0705 34.0873L43.4677 36.6851L46.0705 39.2829C46.263 39.4755 46.263 39.7877 46.0705 39.9803C45.8779 40.1728 45.5657 40.1728 45.3731 39.9803L42.4267 37.0338C42.3347 36.9411 42.2835 36.8157 42.2842 36.6851V36.6851Z" fill="#676F7A" />
      <rect width="117.751" height="20.1069" transform="translate(32.4626 121.248)" fill="#FAFBFC" />
      <rect x="32.4626" y="140.757" width="117.751" height="0.491082" fill="#F0F3F7" />
      <path d="M41.0119 133.846H41.7039V131.29H44.1816V130.677H41.7039V128.746H44.4383V128.132H41.0119V133.846ZM45.4881 133.846H46.1466V131.134C46.1466 130.554 46.6042 130.13 47.2292 130.13C47.405 130.13 47.5864 130.163 47.631 130.174V129.505C47.5557 129.499 47.3827 129.494 47.285 129.494C46.7716 129.494 46.3252 129.784 46.1689 130.208H46.1243V129.561H45.4881V133.846ZM50.0781 133.936C50.9486 133.936 51.5848 133.5 51.7857 132.853L51.1495 132.674C50.9821 133.121 50.5943 133.344 50.0781 133.344C49.3052 133.344 48.7722 132.845 48.7415 131.927H51.8527V131.648C51.8527 130.052 50.904 129.505 50.0111 129.505C48.8504 129.505 48.0803 130.42 48.0803 131.737C48.0803 133.054 48.8392 133.936 50.0781 133.936ZM48.7415 131.357C48.7862 130.691 49.2577 130.096 50.0111 130.096C50.7254 130.096 51.183 130.632 51.183 131.357H48.7415ZM54.6513 133.936C55.5218 133.936 56.158 133.5 56.3589 132.853L55.7227 132.674C55.5553 133.121 55.1675 133.344 54.6513 133.344C53.8784 133.344 53.3454 132.845 53.3147 131.927H56.4259V131.648C56.4259 130.052 55.4772 129.505 54.5843 129.505C53.4236 129.505 52.6535 130.42 52.6535 131.737C52.6535 133.054 53.4124 133.936 54.6513 133.936ZM53.3147 131.357C53.3594 130.691 53.8309 130.096 54.5843 130.096C55.2986 130.096 55.7562 130.632 55.7562 131.357H53.3147ZM57.3048 133.846H60.6642V133.232H58.22V133.188L60.5861 130.085V129.561H57.3829V130.174H59.7379V130.219L57.3048 133.344V133.846ZM63.3526 133.936C64.2232 133.936 64.8594 133.5 65.0602 132.853L64.4241 132.674C64.2567 133.121 63.8688 133.344 63.3526 133.344C62.5797 133.344 62.0468 132.845 62.0161 131.927H65.1272V131.648C65.1272 130.052 64.1785 129.505 63.2857 129.505C62.1249 129.505 61.3548 130.42 61.3548 131.737C61.3548 133.054 62.1138 133.936 63.3526 133.936ZM62.0161 131.357C62.0607 130.691 62.5323 130.096 63.2857 130.096C64 130.096 64.4576 130.632 64.4576 131.357H62.0161ZM73.0264 129.918C72.8143 128.746 71.8768 128.054 70.7272 128.054C69.2651 128.054 68.2048 129.181 68.2048 130.989C68.2048 132.797 69.2651 133.924 70.7272 133.924C71.8768 133.924 72.8143 133.232 73.0264 132.061H72.3344C72.167 132.853 71.4862 133.277 70.7272 133.277C69.6893 133.277 68.8745 132.474 68.8745 130.989C68.8745 129.505 69.6893 128.701 70.7272 128.701C71.4862 128.701 72.167 129.125 72.3344 129.918H73.0264ZM75.3165 133.947C76.0643 133.947 76.4549 133.545 76.5888 133.266H76.6223V133.846H77.2808V131.023C77.2808 129.661 76.2428 129.505 75.6959 129.505C75.0486 129.505 74.312 129.728 73.9772 130.509L74.6022 130.732C74.7473 130.42 75.0905 130.085 75.7183 130.085C76.3237 130.085 76.6223 130.406 76.6223 130.956V130.978C76.6223 131.296 76.2986 131.268 75.5174 131.369C74.7221 131.472 73.8544 131.648 73.8544 132.63C73.8544 133.467 74.5017 133.947 75.3165 133.947ZM75.4169 133.355C74.8924 133.355 74.5129 133.121 74.5129 132.663C74.5129 132.161 74.9705 132.005 75.4839 131.938C75.7629 131.904 76.5107 131.826 76.6223 131.692V132.295C76.6223 132.831 76.1982 133.355 75.4169 133.355ZM78.4827 133.846H79.1412V131.134C79.1412 130.554 79.5988 130.13 80.2238 130.13C80.3996 130.13 80.581 130.163 80.6256 130.174V129.505C80.5503 129.499 80.3773 129.494 80.2796 129.494C79.7662 129.494 79.3198 129.784 79.1635 130.208H79.1189V129.561H78.4827V133.846ZM82.8941 133.936C83.72 133.936 83.999 133.422 84.1441 133.188H84.2222V133.846H84.8584V128.132H84.1999V130.241H84.1441C83.999 130.018 83.7423 129.505 82.9052 129.505C81.8226 129.505 81.0748 130.364 81.0748 131.715C81.0748 133.076 81.8226 133.936 82.8941 133.936ZM82.9833 133.344C82.1574 133.344 81.7333 132.619 81.7333 131.703C81.7333 130.799 82.1463 130.096 82.9833 130.096C83.7869 130.096 84.2111 130.744 84.2111 131.703C84.2111 132.674 83.7758 133.344 82.9833 133.344Z" fill="#1E2229" />
      <path fill-rule="evenodd" clip-rule="evenodd" d="M124.926 125.355H134.748C138.003 125.355 140.641 127.994 140.641 131.248C140.641 134.503 138.003 137.141 134.748 137.141H124.926C121.672 137.141 119.033 134.503 119.033 131.248C119.033 127.994 121.672 125.355 124.926 125.355Z" fill="#D2D6DB" />
      <g filter="url(#filter2_d_1:181)">
        <circle cx="124.926" cy="131.248" r="4.91082" fill="white" />
      </g>
      <rect width="117.751" height="20.1069" transform="translate(32.4626 141.355)" fill="#FAFBFC" />
      <path fill-rule="evenodd" clip-rule="evenodd" d="M136.168 152.859C136.169 152.946 136.134 153.029 136.073 153.091L134.109 155.055C133.98 155.184 133.772 155.184 133.644 155.055C133.516 154.927 133.516 154.719 133.644 154.591L135.379 152.859L133.644 151.127C133.516 150.998 133.516 150.79 133.644 150.662C133.772 150.534 133.98 150.534 134.109 150.662L136.073 152.626C136.134 152.688 136.169 152.772 136.168 152.859Z" fill="#99A0A8" />
      <path d="M43.817 150.714H44.4866C44.456 149.852 43.6607 149.208 42.5558 149.208C41.462 149.208 40.6026 149.844 40.6026 150.804C40.6026 151.574 41.1607 152.031 42.0536 152.288L42.7567 152.489C43.3594 152.656 43.8951 152.868 43.8951 153.438C43.8951 154.063 43.2924 154.476 42.5 154.476C41.8192 154.476 41.2165 154.174 41.1607 153.527H40.4464C40.5133 154.464 41.2723 155.101 42.5 155.101C43.817 155.101 44.5648 154.375 44.5648 153.449C44.5648 152.377 43.5491 152.031 42.9576 151.875L42.3772 151.719C41.9531 151.607 41.2723 151.384 41.2723 150.77C41.2723 150.223 41.7745 149.821 42.5335 149.821C43.2255 149.821 43.75 150.151 43.817 150.714ZM47.4101 155.089C48.2807 155.089 48.9168 154.654 49.1177 154.007L48.4816 153.828C48.3142 154.275 47.9263 154.498 47.4101 154.498C46.6372 154.498 46.1043 153.998 46.0736 153.08H49.1847V152.801C49.1847 151.205 48.236 150.658 47.3432 150.658C46.1824 150.658 45.4123 151.574 45.4123 152.891C45.4123 154.208 46.1713 155.089 47.4101 155.089ZM46.0736 152.511C46.1182 151.844 46.5898 151.25 47.3432 151.25C48.0575 151.25 48.5151 151.786 48.5151 152.511H46.0736ZM52.0503 150.714H51.1351V149.687H50.4766V150.714H49.8293V151.272H50.4766V153.951C50.4766 154.699 51.0793 155.056 51.6373 155.056C51.8829 155.056 52.0391 155.011 52.1284 154.978L51.9945 154.386C51.9387 154.397 51.8494 154.42 51.7043 154.42C51.4141 154.42 51.1351 154.33 51.1351 153.772V151.272H52.0503V150.714ZM55.34 155H56.032V152.913H57.282C58.6129 152.913 59.2128 152.104 59.2128 151.094C59.2128 150.084 58.6129 149.286 57.2708 149.286H55.34V155ZM56.032 152.299V149.9H57.2485C58.1777 149.9 58.532 150.407 58.532 151.094C58.532 151.78 58.1777 152.299 57.2597 152.299H56.032ZM61.0195 149.286H60.3275V155H61.0195V149.286ZM66.9383 149.286H66.2575V153.784H66.2017L63.0766 149.286H62.407V155H63.0989V150.513H63.1547L66.2686 155H66.9383V149.286Z" fill="#1E2229" />
      <rect x="32.4626" y="160.864" width="117.751" height="0.491082" fill="#F0F3F7" />
      <rect x="32.4626" y="120.934" width="117.751" height="0.314331" fill="#F0F3F7" />
      <rect opacity="0.35" x="137.951" y="20.4903" width="6.00081" height="2.98306" rx="1.13232" fill="#1E2229" stroke="white" stroke-width="0.522611" />
      <path opacity="0.4" d="M144.51 21.3636V22.6016C144.749 22.4967 144.904 22.2528 144.904 21.9826C144.904 21.7123 144.749 21.4684 144.51 21.3636" fill="#1E2229" />
      <rect x="138.285" y="20.8479" width="5.33732" height="2.26838" rx="0.696814" fill="#1E2229" />
      <path fill-rule="evenodd" clip-rule="evenodd" d="M134.253 20.8043C134.924 20.8043 135.57 21.073 136.056 21.5549C136.093 21.5921 136.151 21.5916 136.187 21.5538L136.537 21.1856C136.555 21.1665 136.566 21.1405 136.565 21.1135C136.565 21.0865 136.555 21.0607 136.536 21.0417C135.26 19.7669 133.247 19.7669 131.97 21.0417C131.952 21.0607 131.941 21.0865 131.941 21.1135C131.941 21.1405 131.951 21.1665 131.969 21.1856L132.32 21.5538C132.356 21.5917 132.414 21.5921 132.451 21.5549C132.937 21.073 133.582 20.8043 134.253 20.8043ZM134.255 22.0032C134.624 22.0032 134.98 22.1461 135.253 22.4041C135.29 22.4408 135.348 22.44 135.384 22.4023L135.734 22.034C135.752 22.0146 135.762 21.9884 135.762 21.9612C135.762 21.9339 135.751 21.9079 135.732 21.889C134.9 21.0818 133.611 21.0818 132.779 21.889C132.761 21.9079 132.75 21.934 132.75 21.9612C132.749 21.9884 132.76 22.0147 132.778 22.034L133.128 22.4023C133.164 22.44 133.222 22.4408 133.259 22.4041C133.532 22.1463 133.887 22.0034 134.255 22.0032ZM134.955 22.8085C134.955 22.8358 134.945 22.8621 134.926 22.8812L134.321 23.5177C134.303 23.5364 134.279 23.547 134.254 23.547C134.229 23.547 134.205 23.5364 134.187 23.5177L133.582 22.8812C133.563 22.8621 133.553 22.8357 133.553 22.8084C133.554 22.7811 133.565 22.7552 133.585 22.7369C133.971 22.3963 134.537 22.3963 134.923 22.7369C134.943 22.7553 134.954 22.7811 134.955 22.8085Z" fill="#1E2229" />
      <path fill-rule="evenodd" clip-rule="evenodd" d="M130.353 20.1917H130.051C129.885 20.1917 129.749 20.3326 129.749 20.5063V23.2329C129.749 23.4067 129.885 23.5475 130.051 23.5475H130.353C130.519 23.5475 130.654 23.4067 130.654 23.2329V20.5063C130.654 20.3326 130.519 20.1917 130.353 20.1917ZM128.644 20.926H128.946C129.112 20.926 129.247 21.0668 129.247 21.2406V23.2331C129.247 23.4068 129.112 23.5477 128.946 23.5477H128.644C128.477 23.5477 128.342 23.4068 128.342 23.2331V21.2406C128.342 21.0668 128.477 20.926 128.644 20.926ZM127.538 21.6599H127.236C127.07 21.6599 126.935 21.8008 126.935 21.9745V23.2329C126.935 23.4067 127.07 23.5476 127.236 23.5476H127.538C127.705 23.5476 127.84 23.4067 127.84 23.2329V21.9745C127.84 21.8008 127.705 21.6599 127.538 21.6599ZM126.131 22.289H125.829C125.662 22.289 125.527 22.4299 125.527 22.6038V23.2333C125.527 23.4072 125.662 23.5481 125.829 23.5481H126.131C126.297 23.5481 126.432 23.4072 126.432 23.2333V22.6038C126.432 22.4299 126.297 22.289 126.131 22.289Z" fill="#1E2229" />
      <path d="M43.0322 20.4617C41.8964 20.4617 41.0871 21.2383 41.0871 22.3016V22.3088C41.0871 23.3031 41.7911 24.0362 42.7963 24.0362C43.5148 24.0362 43.9721 23.6696 44.1644 23.2559H44.237C44.237 23.2959 44.2333 23.3358 44.2333 23.3757C44.1934 24.3773 43.8414 25.1901 43.0104 25.1901C42.5496 25.1901 42.2266 24.9506 42.0887 24.5841L42.0778 24.5478H41.1561L41.1633 24.5877C41.3303 25.3897 42.0488 25.9595 43.0104 25.9595C44.3277 25.9595 45.1224 24.9143 45.1224 23.1507V23.1435C45.1224 21.2564 44.1499 20.4617 43.0322 20.4617ZM43.0286 23.3176C42.4334 23.3176 42.0016 22.8822 42.0016 22.2762V22.2689C42.0016 21.6846 42.4625 21.2238 43.0394 21.2238C43.6201 21.2238 44.0737 21.6919 44.0737 22.2907V22.2979C44.0737 22.8894 43.6201 23.3176 43.0286 23.3176ZM46.7097 22.4358C47.0435 22.4358 47.2867 22.1818 47.2867 21.8625C47.2867 21.5395 47.0435 21.2891 46.7097 21.2891C46.3794 21.2891 46.1327 21.5395 46.1327 21.8625C46.1327 22.1818 46.3794 22.4358 46.7097 22.4358ZM46.7097 25.1284C47.0435 25.1284 47.2867 24.878 47.2867 24.5551C47.2867 24.2321 47.0435 23.9817 46.7097 23.9817C46.3794 23.9817 46.1327 24.2321 46.1327 24.5551C46.1327 24.878 46.3794 25.1284 46.7097 25.1284ZM50.8371 25.8288H51.7335V24.8236H52.4375V24.0507H51.7335V20.5924H50.4089C49.6977 21.6738 48.9538 22.8785 48.2752 24.0579V24.8236H50.8371V25.8288ZM49.1461 24.0724V24.018C49.6541 23.1289 50.2601 22.16 50.7972 21.3399H50.8516V24.0724H49.1461ZM54.5473 25.8288H55.4835V20.5924H54.5509L53.1828 21.554V22.4358L54.4856 21.5141H54.5473V25.8288Z" fill="#1E2229" />
      <path d="M111.708 263.367H71.4666C71.0361 263.367 70.6867 263.716 70.6867 264.146C70.6867 264.576 71.0361 264.925 71.4666 264.925H111.708C112.139 264.925 112.488 264.576 112.488 264.146C112.488 263.716 112.139 263.367 111.708 263.367Z" fill="#1E2229" />
    </g>
  </g>
  <defs>
    <filter id="filter0_dd_1:181" x="0.997488" y="0.255219" width="220.119" height="354.967" filterUnits="userSpaceOnUse" color-interpolation-filters="sRGB">
      <feFlood flood-opacity="0" result="BackgroundImageFix" />
      <feColorMatrix in="SourceAlpha" type="matrix" values="0 0 0 0 0 0 0 0 0 0 0 0 0 0 0 0 0 0 127 0" result="hardAlpha" />
      <feOffset dx="19.5746" dy="35.2343" />
      <feGaussianBlur stdDeviation="23.4896" />
      <feColorMatrix type="matrix" values="0 0 0 0 0.941176 0 0 0 0 0.952941 0 0 0 0 0.968627 0 0 0 0.2 0" />
      <feBlend mode="normal" in2="BackgroundImageFix" result="effect1_dropShadow_1:181" />
      <feColorMatrix in="SourceAlpha" type="matrix" values="0 0 0 0 0 0 0 0 0 0 0 0 0 0 0 0 0 0 127 0" result="hardAlpha" />
      <feOffset dy="1.95746" />
      <feGaussianBlur stdDeviation="0.978732" />
      <feColorMatrix type="matrix" values="0 0 0 0 0 0 0 0 0 0 0 0 0 0 0 0 0 0 0.25 0" />
      <feBlend mode="normal" in2="effect1_dropShadow_1:181" result="effect2_dropShadow_1:181" />
      <feBlend mode="normal" in="SourceGraphic" in2="effect2_dropShadow_1:181" result="shape" />
    </filter>
    <filter id="filter1_d_1:181" x="30.498" y="13.2711" width="121.68" height="35.974" filterUnits="userSpaceOnUse" color-interpolation-filters="sRGB">
      <feFlood flood-opacity="0" result="BackgroundImageFix" />
      <feColorMatrix in="SourceAlpha" type="matrix" values="0 0 0 0 0 0 0 0 0 0 0 0 0 0 0 0 0 0 127 0" result="hardAlpha" />
      <feOffset dy="0.491082" />
      <feGaussianBlur stdDeviation="0.982164" />
      <feColorMatrix type="matrix" values="0 0 0 0 0.117647 0 0 0 0 0.133333 0 0 0 0 0.160784 0 0 0 0.11 0" />
      <feBlend mode="normal" in2="BackgroundImageFix" result="effect1_dropShadow_1:181" />
      <feBlend mode="normal" in="SourceGraphic" in2="effect1_dropShadow_1:181" result="shape" />
    </filter>
    <filter id="filter2_d_1:181" x="119.033" y="125.355" width="11.786" height="11.786" filterUnits="userSpaceOnUse" color-interpolation-filters="sRGB">
      <feFlood flood-opacity="0" result="BackgroundImageFix" />
      <feColorMatrix in="SourceAlpha" type="matrix" values="0 0 0 0 0 0 0 0 0 0 0 0 0 0 0 0 0 0 127 0" result="hardAlpha" />
      <feOffset />
      <feGaussianBlur stdDeviation="0.491082" />
      <feColorMatrix type="matrix" values="0 0 0 0 0.117647 0 0 0 0 0.133333 0 0 0 0 0.160784 0 0 0 0.08 0" />
      <feBlend mode="normal" in2="BackgroundImageFix" result="effect1_dropShadow_1:181" />
      <feBlend mode="normal" in="SourceGraphic" in2="effect1_dropShadow_1:181" result="shape" />
    </filter>
    <clipPath id="clip0_1:181">
      <rect width="117.751" height="255.106" fill="white" transform="translate(32.4623 14.7444)" />
    </clipPath>
  </defs>
</svg>
  